<?xml version="1.0" encoding="UTF-8" standalone="no"?><!DOCTYPE svg PUBLIC "-//W3C//DTD SVG 1.1//EN" "http://www.w3.org/Graphics/SVG/1.1/DTD/svg11.dtd"><svg width="100%" height="100%" viewBox="0 0 1444 1444" version="1.1" xmlns="http://www.w3.org/2000/svg" xmlns:xlink="http://www.w3.org/1999/xlink" xml:space="preserve" xmlns:serif="http://www.serif.com/" style="fill-rule:evenodd;clip-rule:evenodd;stroke-linecap:round;stroke-linejoin:round;stroke-miterlimit:1.5;"><g id="Logo-Simple" serif:id="Logo Simple"><g id="Outter-top" serif:id="Outter top"><path d="M1055.184,974.54c24.151,-33.97 43.242,-71.783 56.17,-112.336c12.481,-39.15 19.217,-80.854 19.217,-124.119c0,-225.588 -183.149,-408.738 -408.738,-408.738c-225.588,0 -408.738,183.149 -408.738,408.738c0,88.08 27.921,169.691 75.387,236.456l-333.587,0c-29.818,-78.562 -46.145,-163.743 -46.145,-252.707c0,-393.561 319.522,-713.083 713.083,-713.083c393.561,0 713.083,319.522 713.083,713.083c0,88.964 -16.327,174.145 -46.145,252.707" style="fill:#ef8c00;stroke:#1f334c;stroke-width:17.5px;"/></g><g id="Fill-R" serif:id="Fill R"><path d="M1410.578,380.61l-200.481,0" style="fill:none;stroke:#1d354d;stroke-width:22.7px;"/><path d="M1402.562,354.837l-184.209,0.263" style="fill:none;stroke:#476680;stroke-width:33.5px;"/><path d="M1200.287,365.016l-93.655,0" style="fill:none;stroke:#476680;stroke-width:33.5px;"/><path d="M1193.287,403.566c-17.842,0.137 -42.611,0.218 -69.444,0.355" style="fill:none;stroke:#1d354d;stroke-width:46.4px;stroke-linecap:square;"/><path d="M1100.852,376.591c-25.033,-0.585 -38.952,-2.537 -57.158,4.851c-18.206,7.388 -28.284,25.748 -42.1,37.525c-13.817,11.777 -61.667,99.374 -91.739,106.177c-30.072,6.803 -57.32,9.837 -57.32,9.837" style="fill:none;stroke:#476680;stroke-width:33.5px;"/><path d="M1389.74,340.743l-34.916,-0.575l-132.837,-0" style="fill:none;stroke:#d9e2e7;stroke-width:33.5px;"/><path d="M1203.621,330.439c0,0 -59.15,1.225 -88.725,1.837" style="fill:none;stroke:#d9e2e7;stroke-width:33.9px;"/><path d="M1093.922,347.306c-0,0 -59.526,1.652 -82.39,22.457c-27.7,25.207 -58.096,85.181 -90.105,115.24c-35.287,33.138 -74.388,14.764 -74.388,14.764" style="fill:none;stroke:#d9e2e7;stroke-width:33.5px;"/><circle cx="720.965" cy="740.833" r="145.484" style="fill:#ffe499;"/><circle cx="720.965" cy="740.833" r="155.577" style="fill:none;stroke:#e8d432;stroke-width:28.3px;"/><path d="M822.735,913.622c4.758,-4.818 93.178,-107.506 93.178,-107.506l0,110.568c0,0 -94.69,-1.531 -93.178,-3.062Z" style="fill:#1d2f46;"/><path d="M707.923,405.507c-25.612,1.476 -98.987,29.735 -103.141,61.448c-2.646,20.205 88.467,-28.974 116.156,-19.501c7.614,2.605 12.597,-43.424 -13.015,-41.947Z" style="fill:#e3e8ee;"/><path d="M866.903,602.296c0,0 74.298,9.657 95.988,0.208c21.69,-9.449 29.765,-6.438 29.765,-6.438l-16.148,50.807l-85.839,0c0,0 -27.227,-43.539 -23.766,-44.577Z" style="fill:#466881;"/><path d="M976.509,595.609c2.493,0.857 -102.914,0 -102.914,0" style="fill:none;stroke:#7ea2bc;stroke-width:28.3px;stroke-linecap:square;"/><circle cx="720.965" cy="740.833" r="175.37" style="fill:none;stroke:#657179;stroke-width:28.3px;"/><path d="M976.552,657.061c0,0 59.671,35.539 66.084,62.338c6.413,26.799 24.92,148.26 19.24,172.09c-5.68,23.83 -53.872,72.893 -53.872,72.893l-31.452,-49.805l0,-257.517Z" style="fill:#b4392a;"/><path d="M845.249,479.949c13.796,-24.259 -55.492,-62.318 -92.91,-71.466c-10.12,-2.474 -18.319,-3.744 -22.543,-3.456c-19.844,1.35 -8.857,33.625 -8.857,33.625c0,0 114.686,58.219 124.31,41.297Z" style="fill:#426480;"/><path d="M740.458,449.348c-3.096,-3.741 78.221,17.652 90.681,43.507c12.46,25.855 9.193,80.916 9.193,80.916c0,0 -117.861,-35.437 -119.366,-36.994c-1.505,-1.558 60.564,-37.796 19.492,-87.428Z" style="fill:#364655;"/><path d="M1050.482,773.967l-127.954,0.595l0,-41.846l127.387,0l0.567,41.25Z" style="fill:#9bb1bc;"/><circle cx="721.833" cy="749.072" r="144.616" style="fill:#ffe499;stroke:#e8d432;stroke-width:17.5px;"/><path d="M535.438,1169.158l-6.607,-366.068l352.878,3.027l10.523,364.615l-356.794,-1.574Z" style="fill:#1f334b;"/><path d="M915.913,651.963l45.426,0.914l3.44,423.315l-55.951,27.718l7.086,-451.947Z" style="fill:#9bb1bc;"/><path d="M901.546,1107.55l0,-311.266" style="fill:none;stroke:#dce5e9;stroke-width:47.3px;stroke-linecap:square;"/><path d="M725.015,931.292l271.837,-4.071l8.647,35.829l-12.045,38.532l-263.916,0l-4.522,-70.289Z" style="fill:#446880;"/><path d="M1061.179,742.741c13.922,-67.85 100.38,-73.504 103.879,-35.085c3.498,38.419 -15.707,71.329 -15.707,71.329c0,0 -102.094,31.605 -88.172,-36.245Z" style="fill:#eda038;"/><path d="M1155.733,696.108c-0.769,-0.129 1.612,50.005 -26.323,68.542c-34.835,23.116 -67.587,-4.349 -67.59,-2.521c-0.006,3.735 17.148,103.568 111.639,52.265c44.925,-24.392 45.224,-107.739 -17.726,-118.286Z" style="fill:#d5692b;"/></g><g id="Fill-L" serif:id="Fill L"><path d="M46.78,381.521c67.751,-0.416 135.511,-0.836 200.481,0" style="fill:none;stroke:#1d354d;stroke-width:27.4px;"/><path d="M43.466,354.837l187.508,-2.44" style="fill:none;stroke:#476680;stroke-width:33.5px;"/><path d="M249.039,362.313l93.655,0" style="fill:none;stroke:#476680;stroke-width:33.5px;"/><path d="M256.039,400.863c17.842,0.137 42.611,0.218 69.444,0.355" style="fill:none;stroke:#1d354d;stroke-width:46.4px;stroke-linecap:square;"/><path d="M348.475,373.888c25.033,-0.585 38.952,-2.537 57.158,4.851c18.206,7.388 28.284,25.748 42.1,37.525c13.817,11.777 60.733,103.146 90.805,109.949c30.072,6.803 58.253,6.064 58.253,6.064" style="fill:none;stroke:#476680;stroke-width:33.5px;"/><path d="M59.587,338.04l34.916,-0.575l132.837,-0" style="fill:none;stroke:#d9e2e7;stroke-width:33.5px;"/><path d="M245.706,327.735c0,0 59.15,1.225 88.725,1.837" style="fill:none;stroke:#d9e2e7;stroke-width:33.9px;"/><path d="M355.404,344.603c0,0 59.526,1.652 82.39,22.457c27.7,25.207 58.256,85.012 90.105,115.24c29.997,28.47 75.542,16.32 75.542,16.32" style="fill:none;stroke:#d9e2e7;stroke-width:33.5px;"/><path d="M626.592,910.919c-4.758,-4.818 -93.178,-107.506 -93.178,-107.506l0,110.568c0,0 94.69,-1.531 93.178,-3.062Z" style="fill:#1d2f46;"/><path d="M582.423,599.592c0,0 -74.298,9.657 -95.988,0.208c-21.69,-9.449 -29.765,-6.438 -29.765,-6.438l16.148,50.807l85.839,0c0,0 27.227,-43.539 23.766,-44.577Z" style="fill:#466881;"/><path d="M472.818,592.906c-2.493,0.857 102.914,0 102.914,0" style="fill:none;stroke:#7ea2bc;stroke-width:28.3px;stroke-linecap:square;"/><path d="M472.774,654.358c0,0 -59.671,35.539 -66.084,62.338c-6.413,26.799 -24.92,148.26 -19.24,172.09c5.68,23.83 53.872,72.893 53.872,72.893l31.452,-49.805l0,-257.517Z" style="fill:#b4392a;"/><path d="M831.177,476.97c-21.228,-17.029 -87.346,-40.63 -127.94,-30.889c-110.399,26.492 -159.085,171.103 1.043,93.621c55.823,-27.011 138.648,37.566 138.648,37.566c0,0 9.477,-83.269 -11.751,-100.298Z" style="fill:#426480;"/><path d="M253.088,740.408c13.347,-65.161 96.235,-70.591 99.588,-33.694c3.354,36.897 -15.058,68.503 -15.058,68.503c0,0 -97.877,30.353 -84.53,-34.808Z" style="fill:#eda038;"/><path d="M344.36,696.379c-0.757,-0.126 1.521,49.443 -25.999,67.81c-34.317,22.903 -66.518,-4.212 -66.523,-2.404c-0.011,3.694 16.742,102.388 109.814,51.534c44.251,-24.178 44.654,-106.593 -17.292,-116.94Z" style="fill:#d5692b;"/><path d="M708.181,443.802c-25.612,1.476 -112.208,36.566 -106.644,86.773c6.069,54.768 108.074,25.387 119.872,-1.394c11.75,-26.671 12.384,-86.855 -13.228,-85.379Z" style="fill:#e3e8ee;"/><path d="M524.97,651.963l45.426,1.016l-3.171,469.346l-49.34,32.038l7.086,-502.4Z" style="fill:#9bb1bc;"/><path d="M510.603,1158.409l0,-492.139" style="fill:none;stroke:#dce5e9;stroke-width:47.3px;stroke-linecap:square;"/><path d="M398.844,771.264l127.954,0.595l0,-41.846l-127.387,0l-0.567,41.25Z" style="fill:#9bb1bc;"/><path d="M797.152,928.589l-338.067,-1.368l-3.212,71.657l330.521,0l10.758,-70.289Z" style="fill:#446880;"/><circle cx="728.361" cy="738.13" r="145.484" style="fill:#ffe499;"/><circle cx="728.361" cy="738.13" r="155.577" style="fill:none;stroke:#e8d432;stroke-width:28.3px;"/><circle cx="728.361" cy="738.13" r="175.37" style="fill:none;stroke:#657179;stroke-width:28.3px;"/></g><g id="Vector-Lines-R" serif:id="Vector Lines R"><path d="M1220.617,327.785c3.685,-0.314 163.662,0 163.662,0c0,0 34.596,10.797 34.596,37.981c0,27.184 -29.041,36.848 -29.041,36.848l-173.858,0" style="fill:none;stroke:#333;stroke-width:22.7px;"/><path d="M805.423,923.902l147.696,0c0,0 50.3,-8.324 50.3,38.808c0,34.416 -24.049,42.692 -49.284,42.692l-240.459,0" style="fill:none;stroke:#333;stroke-width:22.7px;"/><path d="M915.644,780.721c0.877,-0.395 142.357,0 140.603,0" style="fill:none;stroke:#333;stroke-width:22.7px;"/><path d="M925.856,731.466l77.564,0c29.544,-0 54.717,0 52.843,0" style="fill:none;stroke:#333;stroke-width:22.7px;"/><path d="M1109.098,306.109l97.87,-0.198l0,124.877l-97.87,0l0,-124.68Z" style="fill:none;stroke:#333;stroke-width:22.7px;"/><path d="M720.309,404.611c128.613,0 121.085,76.775 137.197,77.769c1.208,0.075 31.604,9.624 56.698,-12.678c25.094,-22.302 75.778,-110.756 101.838,-120.831c20.177,-7.8 40.568,-16.088 86.155,-15.429" style="fill:none;stroke:#333;stroke-width:22.7px;"/><path d="M717.905,445.306c0,0 90.882,-3.271 114.155,43.579c15.292,30.784 9.114,71.007 9.542,70.431c0,0 26.384,-0.064 27.789,0" style="fill:none;stroke:#333;stroke-width:22.7px;"/><path d="M1102.196,397.236c0,0 -48.636,-0.793 -67.2,14.681c-18.564,15.474 -49.901,74.274 -71.139,95.727c-16.236,16.401 -39.515,47.594 -94.466,51.67" style="fill:none;stroke:#333;stroke-width:22.7px;"/><path d="M1325.323,483.114c-5.572,-1.505 -22.399,-5.371 -47.677,-5.203c-48.24,0.321 -80.184,-2.2 -102.116,-8.073c-24.959,-6.683 -38.293,-17.666 -47.558,-33.249c-3.201,-5.384 -1.429,-12.355 3.955,-15.556c5.384,-3.201 12.355,-1.429 15.556,3.955c6.537,10.994 16.31,18.208 33.918,22.923c20.633,5.525 50.709,7.602 96.093,7.301c39.764,-0.264 56.127,5.259 62.707,9.777c5.814,3.992 7.597,8.388 8.264,11.769c1.434,7.267 -2.66,12.437 -2.66,12.437c-3.704,5.052 -10.813,6.145 -15.865,2.441c-2.845,-2.086 -4.434,-5.252 -4.619,-8.521Zm1.538,-6.371c0.195,-0.331 0.408,-0.656 0.64,-0.973c0,0 -0.309,0.349 -0.64,0.973Z" style="fill:#333;"/><circle cx="1336.653" cy="482.483" r="18.387" style="fill:none;stroke:#333;stroke-width:22.7px;"/><circle cx="720.965" cy="740.833" r="198.928" style="fill:none;stroke:#333;stroke-width:22.7px;"/><circle cx="1127.786" cy="758.99" r="74.695" style="fill:none;stroke:#333;stroke-width:22.7px;"/><path d="M846.42,577.42l107.717,0c0,0 35.923,-0.705 35.923,35.923c0,36.628 0,33.46 0,33.46" style="fill:none;stroke:#333;stroke-width:22.7px;"/><path d="M899.927,646.872l70.529,0c2.455,0 82.635,46.773 82.635,93.961" style="fill:none;stroke:#333;stroke-width:22.7px;"/><path d="M1064.12,801.321c16.994,96.767 -29.167,147.741 -60.701,172.333" style="fill:none;stroke:#333;stroke-width:22.7px;"/><path d="M970.806,1095.62c0.028,-38.653 0.014,-39.919 -0,-88.758" style="fill:none;stroke:#333;stroke-width:22.7px;"/><path d="M970.805,916.684c-0.014,-48.478 -0.027,-96.331 0,-132.36" style="fill:none;stroke:#333;stroke-width:22.7px;"/><path d="M970.806,722.739l-0,-61.059" style="fill:none;stroke:#333;stroke-width:22.7px;"/></g><g id="Vector-Lines-L" serif:id="Vector Lines L"><path d="M229.96,327.785c-3.685,-0.314 -163.662,0 -163.662,0c0,0 -34.596,10.797 -34.596,37.981c0,27.184 29.041,36.848 29.041,36.848l173.858,0" style="fill:none;stroke:#333;stroke-width:22.7px;"/><path d="M645.154,923.902l-147.696,0c0,0 -50.3,-8.324 -50.3,38.808c0,34.416 24.049,42.692 49.284,42.692l240.459,0" style="fill:none;stroke:#333;stroke-width:22.7px;"/><path d="M534.933,780.721c-0.877,-0.395 -142.357,0 -140.603,0" style="fill:none;stroke:#333;stroke-width:22.7px;"/><path d="M524.721,731.466l-77.564,0c-29.544,-0 -54.717,0 -52.843,0" style="fill:none;stroke:#333;stroke-width:22.7px;"/><path d="M341.479,306.109l-97.87,-0.198l0,124.877l97.87,0l0,-124.68Z" style="fill:none;stroke:#333;stroke-width:22.7px;"/><path d="M717.493,404.611c-109.372,3.589 -108.311,76.775 -124.422,77.769c-1.208,0.075 -31.604,9.624 -56.698,-12.678c-25.094,-22.302 -75.778,-110.756 -101.838,-120.831c-20.177,-7.8 -40.568,-16.088 -86.155,-15.429" style="fill:none;stroke:#333;stroke-width:22.7px;"/><path d="M720.309,445.306c0,0 -82.727,5.198 -101.792,43.579c-15.292,30.784 -9.114,71.007 -9.542,70.431c0,0 -26.384,-0.064 -27.789,0" style="fill:none;stroke:#333;stroke-width:22.7px;"/><path d="M348.38,397.236c0,0 48.636,-0.793 67.2,14.681c18.564,15.474 49.901,74.274 71.139,95.727c16.236,16.401 39.515,47.594 94.466,51.67" style="fill:none;stroke:#333;stroke-width:22.7px;"/><circle cx="729.611" cy="740.833" r="198.928" style="fill:none;stroke:#333;stroke-width:22.7px;"/><circle cx="322.791" cy="758.99" r="74.695" style="fill:none;stroke:#333;stroke-width:22.7px;"/><path d="M604.156,577.42l-107.717,0c0,0 -35.923,-0.705 -35.923,35.923c0,36.628 0,33.46 0,33.46" style="fill:none;stroke:#333;stroke-width:22.7px;"/><path d="M550.65,646.872l-70.529,0c-2.455,0 -82.635,46.773 -82.635,93.961" style="fill:none;stroke:#333;stroke-width:22.7px;"/><path d="M386.456,801.321c-16.994,96.767 29.167,147.741 60.701,172.333" style="fill:none;stroke:#333;stroke-width:22.7px;"/><path d="M479.771,1095.62c-0.028,-38.653 -0.013,-39.919 0,-88.758" style="fill:none;stroke:#333;stroke-width:22.7px;"/><path d="M479.771,916.684c0.014,-48.478 0.027,-96.331 -0,-132.36" style="fill:none;stroke:#333;stroke-width:22.7px;"/><path d="M479.771,722.739l0,-61.059" style="fill:none;stroke:#333;stroke-width:22.7px;"/><path d="M108.714,485.114c-0.184,3.27 -1.774,6.435 -4.619,8.521c-5.052,3.704 -12.16,2.611 -15.865,-2.441c0,0 -4.093,-5.17 -2.66,-12.437c0.667,-3.381 2.451,-7.777 8.264,-11.769c6.579,-4.518 22.942,-10.041 62.707,-9.777c45.384,0.302 75.46,-1.776 96.093,-7.301c17.608,-4.715 27.382,-11.929 33.918,-22.923c3.201,-5.384 10.172,-7.157 15.556,-3.955c5.384,3.201 7.157,10.172 3.955,15.556c-9.265,15.583 -22.599,26.566 -47.558,33.249c-21.932,5.873 -53.876,8.393 -102.116,8.073c-25.278,-0.168 -42.105,3.698 -47.677,5.203Zm-1.538,-6.371c-0.331,-0.624 -0.64,-0.973 -0.64,-0.973c0.232,0.317 0.445,0.641 0.64,0.973Z" style="fill:#333;"/><circle cx="97.383" cy="484.483" r="18.387" style="fill:none;stroke:#333;stroke-width:22.7px;"/></g><g id="Fill-R1" serif:id="Fill R"><path d="M1410.578,380.61l-200.481,0" style="fill:none;stroke:#1d354d;stroke-width:22.7px;"/><path d="M1402.562,354.837l-184.209,0.263" style="fill:none;stroke:#476680;stroke-width:33.5px;"/><path d="M1200.287,365.016l-93.655,0" style="fill:none;stroke:#476680;stroke-width:33.5px;"/><path d="M1193.287,403.566c-17.842,0.137 -42.611,0.218 -69.444,0.355" style="fill:none;stroke:#1d354d;stroke-width:46.4px;stroke-linecap:square;"/><path d="M1100.852,376.591c-25.033,-0.585 -38.952,-2.537 -57.158,4.851c-18.206,7.388 -28.284,25.748 -42.1,37.525c-13.817,11.777 -61.667,99.374 -91.739,106.177c-30.072,6.803 -57.32,9.837 -57.32,9.837" style="fill:none;stroke:#476680;stroke-width:33.5px;"/><path d="M1389.74,340.743l-34.916,-0.575l-132.837,-0" style="fill:none;stroke:#d9e2e7;stroke-width:33.5px;"/><path d="M1203.621,330.439c0,0 -59.15,1.225 -88.725,1.837" style="fill:none;stroke:#d9e2e7;stroke-width:33.9px;"/><path d="M1093.922,347.306c-0,0 -59.526,1.652 -82.39,22.457c-27.7,25.207 -58.096,85.181 -90.105,115.24c-35.287,33.138 -74.388,14.764 -74.388,14.764" style="fill:none;stroke:#d9e2e7;stroke-width:33.5px;"/><circle cx="720.965" cy="740.833" r="145.484" style="fill:#ffe499;"/><circle cx="720.965" cy="740.833" r="155.577" style="fill:none;stroke:#e8d432;stroke-width:28.3px;"/><path d="M822.735,913.622c4.758,-4.818 93.178,-107.506 93.178,-107.506l0,110.568c0,0 -94.69,-1.531 -93.178,-3.062Z" style="fill:#1d2f46;"/><path d="M707.923,405.507c-25.612,1.476 -98.987,29.735 -103.141,61.448c-2.646,20.205 88.467,-28.974 116.156,-19.501c7.614,2.605 12.597,-43.424 -13.015,-41.947Z" style="fill:#e3e8ee;"/><path d="M866.903,602.296c0,0 74.298,9.657 95.988,0.208c21.69,-9.449 29.765,-6.438 29.765,-6.438l-16.148,50.807l-85.839,0c0,0 -27.227,-43.539 -23.766,-44.577Z" style="fill:#466881;"/><path d="M976.509,595.609c2.493,0.857 -102.914,0 -102.914,0" style="fill:none;stroke:#7ea2bc;stroke-width:28.3px;stroke-linecap:square;"/><circle cx="720.965" cy="740.833" r="175.37" style="fill:none;stroke:#657179;stroke-width:28.3px;"/><path d="M976.552,657.061c0,0 59.671,35.539 66.084,62.338c6.413,26.799 24.92,148.26 19.24,172.09c-5.68,23.83 -53.872,72.893 -53.872,72.893l-31.452,-49.805l0,-257.517Z" style="fill:#b4392a;"/><path d="M845.249,479.949c13.796,-24.259 -55.492,-62.318 -92.91,-71.466c-10.12,-2.474 -18.319,-3.744 -22.543,-3.456c-19.844,1.35 -8.857,33.625 -8.857,33.625c0,0 114.686,58.219 124.31,41.297Z" style="fill:#426480;"/><path d="M740.458,449.348c-3.096,-3.741 78.221,17.652 90.681,43.507c12.46,25.855 9.193,80.916 9.193,80.916c0,0 -117.861,-35.437 -119.366,-36.994c-1.505,-1.558 60.564,-37.796 19.492,-87.428Z" style="fill:#364655;"/><path d="M1050.482,773.967l-127.954,0.595l0,-41.846l127.387,0l0.567,41.25Z" style="fill:#9bb1bc;"/><circle cx="721.833" cy="749.072" r="144.616" style="fill:#ffe499;stroke:#e8d432;stroke-width:17.5px;"/><path d="M535.438,1169.158l-6.607,-366.068l352.878,3.027l10.523,364.615l-356.794,-1.574Z" style="fill:#1f334b;"/><path d="M915.913,651.963l45.426,0.914l3.44,423.315l-55.951,27.718l7.086,-451.947Z" style="fill:#9bb1bc;"/><path d="M901.546,1107.55l0,-311.266" style="fill:none;stroke:#dce5e9;stroke-width:47.3px;stroke-linecap:square;"/><path d="M725.015,931.292l271.837,-4.071l8.647,35.829l-12.045,38.532l-263.916,0l-4.522,-70.289Z" style="fill:#446880;"/><path d="M1061.179,742.741c13.922,-67.85 100.38,-73.504 103.879,-35.085c3.498,38.419 -15.707,71.329 -15.707,71.329c0,0 -102.094,31.605 -88.172,-36.245Z" style="fill:#eda038;"/><path d="M1155.733,696.108c-0.769,-0.129 1.612,50.005 -26.323,68.542c-34.835,23.116 -67.587,-4.349 -67.59,-2.521c-0.006,3.735 17.148,103.568 111.639,52.265c44.925,-24.392 45.224,-107.739 -17.726,-118.286Z" style="fill:#d5692b;"/></g><g id="Fill-L1" serif:id="Fill L"><path d="M46.78,381.521c67.751,-0.416 135.511,-0.836 200.481,0" style="fill:none;stroke:#1d354d;stroke-width:27.4px;"/><path d="M43.466,354.837l187.508,-2.44" style="fill:none;stroke:#476680;stroke-width:33.5px;"/><path d="M249.039,362.313l93.655,0" style="fill:none;stroke:#476680;stroke-width:33.5px;"/><path d="M256.039,400.863c17.842,0.137 42.611,0.218 69.444,0.355" style="fill:none;stroke:#1d354d;stroke-width:46.4px;stroke-linecap:square;"/><path d="M348.475,373.888c25.033,-0.585 38.952,-2.537 57.158,4.851c18.206,7.388 28.284,25.748 42.1,37.525c13.817,11.777 60.733,103.146 90.805,109.949c30.072,6.803 58.253,6.064 58.253,6.064" style="fill:none;stroke:#476680;stroke-width:33.5px;"/><path d="M59.587,338.04l34.916,-0.575l132.837,-0" style="fill:none;stroke:#d9e2e7;stroke-width:33.5px;"/><path d="M245.706,327.735c0,0 59.15,1.225 88.725,1.837" style="fill:none;stroke:#d9e2e7;stroke-width:33.9px;"/><path d="M355.404,344.603c0,0 59.526,1.652 82.39,22.457c27.7,25.207 58.256,85.012 90.105,115.24c29.997,28.47 75.542,16.32 75.542,16.32" style="fill:none;stroke:#d9e2e7;stroke-width:33.5px;"/><path d="M626.592,910.919c-4.758,-4.818 -93.178,-107.506 -93.178,-107.506l0,110.568c0,0 94.69,-1.531 93.178,-3.062Z" style="fill:#1d2f46;"/><path d="M582.423,599.592c0,0 -74.298,9.657 -95.988,0.208c-21.69,-9.449 -29.765,-6.438 -29.765,-6.438l16.148,50.807l85.839,0c0,0 27.227,-43.539 23.766,-44.577Z" style="fill:#466881;"/><path d="M472.818,592.906c-2.493,0.857 102.914,0 102.914,0" style="fill:none;stroke:#7ea2bc;stroke-width:28.3px;stroke-linecap:square;"/><path d="M472.774,654.358c0,0 -59.671,35.539 -66.084,62.338c-6.413,26.799 -24.92,148.26 -19.24,172.09c5.68,23.83 53.872,72.893 53.872,72.893l31.452,-49.805l0,-257.517Z" style="fill:#b4392a;"/><path d="M831.177,476.97c-21.228,-17.029 -87.346,-40.63 -127.94,-30.889c-110.399,26.492 -159.085,171.103 1.043,93.621c55.823,-27.011 138.648,37.566 138.648,37.566c0,0 9.477,-83.269 -11.751,-100.298Z" style="fill:#426480;"/><path d="M253.088,740.408c13.347,-65.161 96.235,-70.591 99.588,-33.694c3.354,36.897 -15.058,68.503 -15.058,68.503c0,0 -97.877,30.353 -84.53,-34.808Z" style="fill:#eda038;"/><path d="M344.36,696.379c-0.757,-0.126 1.521,49.443 -25.999,67.81c-34.317,22.903 -66.518,-4.212 -66.523,-2.404c-0.011,3.694 16.742,102.388 109.814,51.534c44.251,-24.178 44.654,-106.593 -17.292,-116.94Z" style="fill:#d5692b;"/><path d="M708.181,443.802c-25.612,1.476 -112.208,36.566 -106.644,86.773c6.069,54.768 108.074,25.387 119.872,-1.394c11.75,-26.671 12.384,-86.855 -13.228,-85.379Z" style="fill:#e3e8ee;"/><path d="M524.97,651.963l45.426,1.016l-3.171,469.346l-49.34,32.038l7.086,-502.4Z" style="fill:#9bb1bc;"/><path d="M510.603,1158.409l0,-492.139" style="fill:none;stroke:#dce5e9;stroke-width:47.3px;stroke-linecap:square;"/><path d="M398.844,771.264l127.954,0.595l0,-41.846l-127.387,0l-0.567,41.25Z" style="fill:#9bb1bc;"/><path d="M797.152,928.589l-338.067,-1.368l-3.212,71.657l330.521,0l10.758,-70.289Z" style="fill:#446880;"/><circle cx="728.361" cy="738.13" r="145.484" style="fill:#ffe499;"/><circle cx="728.361" cy="738.13" r="155.577" style="fill:none;stroke:#e8d432;stroke-width:28.3px;"/><circle cx="728.361" cy="738.13" r="175.37" style="fill:none;stroke:#657179;stroke-width:28.3px;"/></g><g id="Vector-Lines-R1" serif:id="Vector Lines R"><path d="M1220.617,327.785c3.685,-0.314 163.662,0 163.662,0c0,0 34.596,10.797 34.596,37.981c0,27.184 -29.041,36.848 -29.041,36.848l-173.858,0" style="fill:none;stroke:#333;stroke-width:22.7px;"/><path d="M805.423,923.902l147.696,0c0,0 50.3,-8.324 50.3,38.808c0,34.416 -24.049,42.692 -49.284,42.692l-240.459,0" style="fill:none;stroke:#333;stroke-width:22.7px;"/><path d="M915.644,780.721c0.877,-0.395 142.357,0 140.603,0" style="fill:none;stroke:#333;stroke-width:22.7px;"/><path d="M925.856,731.466l77.564,0c29.544,-0 54.717,0 52.843,0" style="fill:none;stroke:#333;stroke-width:22.7px;"/><path d="M1109.098,306.109l97.87,-0.198l0,124.877l-97.87,0l0,-124.68Z" style="fill:none;stroke:#333;stroke-width:22.7px;"/><path d="M720.309,404.611c128.613,0 121.085,76.775 137.197,77.769c1.208,0.075 31.604,9.624 56.698,-12.678c25.094,-22.302 75.778,-110.756 101.838,-120.831c20.177,-7.8 40.568,-16.088 86.155,-15.429" style="fill:none;stroke:#333;stroke-width:22.7px;"/><path d="M717.905,445.306c0,0 90.882,-3.271 114.155,43.579c15.292,30.784 9.114,71.007 9.542,70.431c0,0 26.384,-0.064 27.789,0" style="fill:none;stroke:#333;stroke-width:22.7px;"/><path d="M1102.196,397.236c0,0 -48.636,-0.793 -67.2,14.681c-18.564,15.474 -49.901,74.274 -71.139,95.727c-16.236,16.401 -39.515,47.594 -94.466,51.67" style="fill:none;stroke:#333;stroke-width:22.7px;"/><path d="M1325.323,483.114c-5.572,-1.505 -22.399,-5.371 -47.677,-5.203c-48.24,0.321 -80.184,-2.2 -102.116,-8.073c-24.959,-6.683 -38.293,-17.666 -47.558,-33.249c-3.201,-5.384 -1.429,-12.355 3.955,-15.556c5.384,-3.201 12.355,-1.429 15.556,3.955c6.537,10.994 16.31,18.208 33.918,22.923c20.633,5.525 50.709,7.602 96.093,7.301c39.764,-0.264 56.127,5.259 62.707,9.777c5.814,3.992 7.597,8.388 8.264,11.769c1.434,7.267 -2.66,12.437 -2.66,12.437c-3.704,5.052 -10.813,6.145 -15.865,2.441c-2.845,-2.086 -4.434,-5.252 -4.619,-8.521Zm1.538,-6.371c0.195,-0.331 0.408,-0.656 0.64,-0.973c0,0 -0.309,0.349 -0.64,0.973Z" style="fill:#333;"/><circle cx="1336.653" cy="482.483" r="18.387" style="fill:none;stroke:#333;stroke-width:22.7px;"/><circle cx="720.965" cy="740.833" r="198.928" style="fill:none;stroke:#333;stroke-width:22.7px;"/><circle cx="1127.786" cy="758.99" r="74.695" style="fill:none;stroke:#333;stroke-width:22.7px;"/><path d="M846.42,577.42l107.717,0c0,0 35.923,-0.705 35.923,35.923c0,36.628 0,33.46 0,33.46" style="fill:none;stroke:#333;stroke-width:22.7px;"/><path d="M899.927,646.872l70.529,0c2.455,0 82.635,46.773 82.635,93.961" style="fill:none;stroke:#333;stroke-width:22.7px;"/><path d="M1064.12,801.321c16.994,96.767 -29.167,147.741 -60.701,172.333" style="fill:none;stroke:#333;stroke-width:22.7px;"/><path d="M970.806,1095.62c0.028,-38.653 0.014,-39.919 -0,-88.758" style="fill:none;stroke:#333;stroke-width:22.7px;"/><path d="M970.805,916.684c-0.014,-48.478 -0.027,-96.331 0,-132.36" style="fill:none;stroke:#333;stroke-width:22.7px;"/><path d="M970.806,722.739l-0,-61.059" style="fill:none;stroke:#333;stroke-width:22.7px;"/></g><g id="Vector-Lines-L1" serif:id="Vector Lines L"><path d="M229.96,327.785c-3.685,-0.314 -163.662,0 -163.662,0c0,0 -34.596,10.797 -34.596,37.981c0,27.184 29.041,36.848 29.041,36.848l173.858,0" style="fill:none;stroke:#333;stroke-width:22.7px;"/><path d="M645.154,923.902l-147.696,0c0,0 -50.3,-8.324 -50.3,38.808c0,34.416 24.049,42.692 49.284,42.692l240.459,0" style="fill:none;stroke:#333;stroke-width:22.7px;"/><path d="M534.933,780.721c-0.877,-0.395 -142.357,0 -140.603,0" style="fill:none;stroke:#333;stroke-width:22.7px;"/><path d="M524.721,731.466l-77.564,0c-29.544,-0 -54.717,0 -52.843,0" style="fill:none;stroke:#333;stroke-width:22.7px;"/><path d="M341.479,306.109l-97.87,-0.198l0,124.877l97.87,0l0,-124.68Z" style="fill:none;stroke:#333;stroke-width:22.7px;"/><path d="M717.493,404.611c-109.372,3.589 -108.311,76.775 -124.422,77.769c-1.208,0.075 -31.604,9.624 -56.698,-12.678c-25.094,-22.302 -75.778,-110.756 -101.838,-120.831c-20.177,-7.8 -40.568,-16.088 -86.155,-15.429" style="fill:none;stroke:#333;stroke-width:22.7px;"/><path d="M720.309,445.306c0,0 -82.727,5.198 -101.792,43.579c-15.292,30.784 -9.114,71.007 -9.542,70.431c0,0 -26.384,-0.064 -27.789,0" style="fill:none;stroke:#333;stroke-width:22.7px;"/><path d="M348.38,397.236c0,0 48.636,-0.793 67.2,14.681c18.564,15.474 49.901,74.274 71.139,95.727c16.236,16.401 39.515,47.594 94.466,51.67" style="fill:none;stroke:#333;stroke-width:22.7px;"/><circle cx="729.611" cy="740.833" r="198.928" style="fill:none;stroke:#333;stroke-width:22.7px;"/><circle cx="322.791" cy="758.99" r="74.695" style="fill:none;stroke:#333;stroke-width:22.7px;"/><path d="M604.156,577.42l-107.717,0c0,0 -35.923,-0.705 -35.923,35.923c0,36.628 0,33.46 0,33.46" style="fill:none;stroke:#333;stroke-width:22.7px;"/><path d="M550.65,646.872l-70.529,0c-2.455,0 -82.635,46.773 -82.635,93.961" style="fill:none;stroke:#333;stroke-width:22.7px;"/><path d="M386.456,801.321c-16.994,96.767 29.167,147.741 60.701,172.333" style="fill:none;stroke:#333;stroke-width:22.7px;"/><path d="M479.771,1095.62c-0.028,-38.653 -0.013,-39.919 0,-88.758" style="fill:none;stroke:#333;stroke-width:22.7px;"/><path d="M479.771,916.684c0.014,-48.478 0.027,-96.331 -0,-132.36" style="fill:none;stroke:#333;stroke-width:22.7px;"/><path d="M479.771,722.739l0,-61.059" style="fill:none;stroke:#333;stroke-width:22.7px;"/><path d="M108.714,485.114c-0.184,3.27 -1.774,6.435 -4.619,8.521c-5.052,3.704 -12.16,2.611 -15.865,-2.441c0,0 -4.093,-5.17 -2.66,-12.437c0.667,-3.381 2.451,-7.777 8.264,-11.769c6.579,-4.518 22.942,-10.041 62.707,-9.777c45.384,0.302 75.46,-1.776 96.093,-7.301c17.608,-4.715 27.382,-11.929 33.918,-22.923c3.201,-5.384 10.172,-7.157 15.556,-3.955c5.384,3.201 7.157,10.172 3.955,15.556c-9.265,15.583 -22.599,26.566 -47.558,33.249c-21.932,5.873 -53.876,8.393 -102.116,8.073c-25.278,-0.168 -42.105,3.698 -47.677,5.203Zm-1.538,-6.371c-0.331,-0.624 -0.64,-0.973 -0.64,-0.973c0.232,0.317 0.445,0.641 0.64,0.973Z" style="fill:#333;"/><circle cx="97.383" cy="484.483" r="18.387" style="fill:none;stroke:#333;stroke-width:22.7px;"/></g><g id="Outter-bottom" serif:id="Outter bottom"><path d="M1413.578,895.52c-77.637,309.734 -358.082,539.396 -691.744,539.396c-333.662,0 -614.107,-229.662 -691.744,-539.396l314.476,-0c61.703,147.531 207.463,251.302 377.269,251.302c169.806,0 315.566,-103.771 377.269,-251.302l314.476,0Z" style="fill:#ef8c00;"/><g id="Outter-bottom1" serif:id="Outter bottom"><path d="M1413.578,895.52c-77.637,309.734 -358.082,539.396 -691.744,539.396c-333.662,0 -614.107,-229.662 -691.744,-539.396" style="fill:none;stroke:#1f334c;stroke-width:17.5px;"/><path d="M344.565,895.52c61.703,147.531 207.463,251.302 377.269,251.302c169.806,0 315.566,-103.771 377.269,-251.302" style="fill:none;stroke:#1f334c;stroke-width:17.5px;"/></g></g></g></svg>